<svg width="31" height="32" viewBox="0 0 31 32" fill="none" xmlns="http://www.w3.org/2000/svg">
<path d="M15.5 0C6.944 0 0 6.95877 0 15.533C0 24.1072 6.944 31.066 15.5 31.066C24.056 31.066 31 24.1072 31 15.533C31 6.95877 24.056 0 15.5 0ZM22.692 10.5624C22.4595 13.0166 21.452 18.9813 20.9405 21.7306C20.7235 22.8956 20.2895 23.2839 19.8865 23.3305C18.9875 23.4082 18.3055 22.7403 17.4375 22.1656C16.0735 21.2646 15.2985 20.7055 13.981 19.8356C12.4465 18.826 13.4385 18.2668 14.322 17.3659C14.5545 17.1329 18.5225 13.5137 18.6 13.1875C18.6108 13.1381 18.6093 13.0868 18.5958 13.0381C18.5823 12.9894 18.5571 12.9447 18.5225 12.9079C18.4295 12.8302 18.3055 12.8613 18.197 12.8768C18.0575 12.9079 15.8875 14.3525 11.656 17.2105C11.036 17.6299 10.478 17.8474 9.982 17.8319C9.424 17.8163 8.37 17.5212 7.5795 17.2571C6.603 16.9465 5.8435 16.7756 5.9055 16.232C5.9365 15.9524 6.324 15.6728 7.0525 15.3776C11.5785 13.405 14.5855 12.1002 16.089 11.4789C20.398 9.67705 21.2815 9.36639 21.8705 9.36639C21.9945 9.36639 22.289 9.39745 22.475 9.55278C22.63 9.67704 22.6765 9.84791 22.692 9.97217C22.6765 10.0654 22.7075 10.345 22.692 10.5624Z" fill="white"/>
</svg>
