<svg width="31" height="32" viewBox="0 0 31 32" fill="none" xmlns="http://www.w3.org/2000/svg">
<path d="M26.4824 4.52018C25.0542 3.08171 23.3531 1.94119 21.4782 1.16514C19.6034 0.389091 17.5923 -0.00695893 15.5623 9.25291e-05C7.05678 9.25291e-05 0.124623 6.91225 0.124623 15.3932C0.124623 18.1115 0.841206 20.7521 2.1809 23.082L0 31.066L8.17839 28.9224C10.4372 30.1495 12.9764 30.8019 15.5623 30.8019C24.0678 30.8019 31 23.8897 31 15.4088C31 11.2925 29.3955 7.42483 26.4824 4.52018ZM15.5623 28.1924C13.2568 28.1924 10.998 27.571 9.0196 26.4061L8.55226 26.1265L3.69196 27.4002L4.98492 22.6782L4.67337 22.1967C3.39247 20.1571 2.71233 17.7997 2.71055 15.3932C2.71055 8.34128 8.47437 2.59409 15.5467 2.59409C18.9739 2.59409 22.1985 3.92992 24.6131 6.35306C25.8086 7.53972 26.7561 8.9512 27.4006 10.5057C28.045 12.0602 28.3736 13.7267 28.3673 15.4088C28.3985 22.4607 22.6347 28.1924 15.5623 28.1924ZM22.6035 18.6241C22.2141 18.4377 20.3136 17.5057 19.9709 17.3659C19.6126 17.2416 19.3633 17.1795 19.0985 17.5523C18.8337 17.9406 18.1015 18.8105 17.8834 19.059C17.6653 19.3231 17.4317 19.3541 17.0422 19.1522C16.6528 18.9658 15.4065 18.5464 13.9422 17.2416C12.7894 16.2165 12.0261 14.9583 11.7925 14.57C11.5744 14.1817 11.7613 13.9797 11.9638 13.7778C12.1352 13.6069 12.3533 13.3273 12.5402 13.1099C12.7271 12.8924 12.805 12.7216 12.9296 12.473C13.0543 12.209 12.992 11.9915 12.8985 11.8051C12.805 11.6187 12.0261 9.72371 11.7146 8.94706C11.403 8.20148 11.0759 8.29468 10.8422 8.27915H10.0945C9.82965 8.27915 9.42462 8.37234 9.06633 8.76067C8.72362 9.14899 7.72663 10.081 7.72663 11.976C7.72663 13.871 9.11306 15.7039 9.3 15.9524C9.48693 16.2165 12.0261 20.0997 15.8894 21.7617C16.8085 22.1656 17.5251 22.3986 18.0859 22.5694C19.005 22.8646 19.8462 22.818 20.5161 22.7248C21.2638 22.616 22.806 21.7928 23.1176 20.8919C23.4447 19.991 23.4447 19.2299 23.3357 19.059C23.2266 18.8881 22.993 18.8105 22.6035 18.6241Z" fill="white"/>
</svg>
